<svg xmlns="http://www.w3.org/2000/svg" version="1.1" xmlns:xlink="http://www.w3.org/1999/xlink" xmlns:svgjs="http://svgjs.dev/svgjs" viewBox="0 0 800 800"><defs><filter id="bbburst-blur-1" x="-100%" y="-100%" width="400%" height="400%"><feGaussianBlur in="SourceGraphic" stdDeviation="1"></feGaussianBlur></filter><filter id="bbburst-blur-2" x="-100%" y="-100%" width="400%" height="400%"><feGaussianBlur in="SourceGraphic" stdDeviation="2"></feGaussianBlur></filter><filter id="bbburst-blur-3" x="-100%" y="-100%" width="400%" height="400%"><feGaussianBlur in="SourceGraphic" stdDeviation="4"></feGaussianBlur></filter><filter id="bbburst-blur-4" x="-100%" y="-100%" width="400%" height="400%"><feGaussianBlur in="SourceGraphic" stdDeviation="12"></feGaussianBlur></filter><symbol id="bbburst-shape-1" viewBox="0 0 194 167"><path d="m97 0 96.129 166.5H.871L97 0Z"></path></symbol><symbol id="bbburst-shape-4" viewBox="0 0 149 143"><path d="M71.647 2.781c.898-2.764 4.808-2.764 5.706 0l15.445 47.534a3 3 0 0 0 2.853 2.073h49.98c2.906 0 4.115 3.719 1.764 5.427L106.96 87.193a2.999 2.999 0 0 0-1.09 3.354l15.445 47.534c.898 2.764-2.266 5.062-4.617 3.354l-40.435-29.378a3 3 0 0 0-3.526 0l-40.435 29.378c-2.351 1.708-5.515-.59-4.617-3.354L43.13 90.547a3 3 0 0 0-1.09-3.354L1.605 57.815c-2.35-1.708-1.142-5.427 1.764-5.427h49.98a3 3 0 0 0 2.853-2.073L71.647 2.781Z"></path></symbol><symbol id="bbburst-shape-6" viewBox="0 0 133 116"><path d="M59.7487 10.2513c-13.6683-13.66839-35.8291-13.66839-49.4974 0-13.66839 13.6683-13.66839 35.8291 0 49.4974l49.4974-49.4974ZM66.5 66.5 41.7513 91.2487 66.5 115.997l24.7487-24.7483L66.5 66.5Zm56.249-6.7513c13.668-13.6683 13.668-35.8291 0-49.4974-13.669-13.66839-35.8294-13.66839-49.4977 0l49.4977 49.4974Zm-112.4977 0 31.5 31.5 49.4974-49.4974-31.5-31.5-49.4974 49.4974Zm80.9974 31.5 31.5003-31.5-49.4977-49.4974-31.5 31.5 49.4974 49.4974Z"></path></symbol><symbol id="bbburst-shape-8" viewBox="0 0 87 168"><path d="m12 12 31.2546 18.0749c16.4102 9.4902 20.014 31.6325 7.4603 45.8369L36.3296 92.1884c-12.5684 14.2206-8.9394 36.3916 7.5068 45.8636L75 156" stroke-width="14" stroke-linecap="round" stroke-linejoin="round"></path></symbol><symbol id="bbburst-shape-10" viewBox="0 0 145 145"><circle cx="72.5" cy="72.5" r="61.5" fill="none" stroke-width="22"></circle></symbol></defs><use xlink:href="#bbburst-shape-4" width="31.210597898719463" opacity="0.3825038499462109" transform="matrix(0.985758860368824,0.16816500588516456,-0.16816500588516456,0.985758860368824,717.248995922231,85.5128214712937)" fill="#2c2891" filter="url(#bbburst-blur-2)"></use><use xlink:href="#bbburst-shape-6" width="33.96663986611192" opacity="0.5973167688257263" transform="matrix(0.9999939189696063,0.003487409326198457,-0.003487409326198457,0.9999939189696063,292.4883606390864,156.10449315508123)" fill="#ffa6d5" filter="url(#bbburst-blur-1)"></use><use xlink:href="#bbburst-shape-10" width="49.07931168370763" opacity="0.1529257558660404" transform="matrix(1.1405964922020093,-0.5114094660606816,0.5114094660606816,1.1405964922020093,-112.1695342998012,215.37825732517098)" fill="none" stroke="#ffa6d5" filter="url(#bbburst-blur-3)"></use><use xlink:href="#bbburst-shape-4" width="14.147654228986712" opacity="0.7954947917734038" transform="matrix(0.9703346366476219,0.24176578112282068,-0.24176578112282068,0.9703346366476219,484.90077201863306,102.06313665715209)" fill="#00a19d"></use><use xlink:href="#bbburst-shape-6" width="19.385879354692698" opacity="0.6981036344677272" transform="matrix(0.9231973418673863,-0.384326251990405,0.384326251990405,0.9231973418673863,229.04978382854972,-101.15480599301958)" fill="#ffa6d5" filter="url(#bbburst-blur-1)"></use><use xlink:href="#bbburst-shape-10" width="37.369692750667" opacity="0.16265030702174232" transform="matrix(0.9132095837754474,0.8535503828718455,-0.8535503828718455,0.9132095837754474,987.5211823938356,-250.9143010534827)" fill="none" stroke="#ffbd9b" filter="url(#bbburst-blur-3)"></use><use xlink:href="#bbburst-shape-6" width="38.86060054643774" opacity="0.22650904456013687" transform="matrix(0.9953163016432277,0.7562046414055175,-0.7562046414055175,0.9953163016432277,1031.070364995236,-22.78890500484158)" fill="#ffbd9b" filter="url(#bbburst-blur-3)"></use><use xlink:href="#bbburst-shape-10" width="34.010623116434964" opacity="-0.07780126851550406" transform="matrix(1.4344982901140473,1.0023545558632807,-1.0023545558632807,1.4344982901140473,1112.240728703315,-540.9096166759268)" fill="none" stroke="#2c2891" filter="url(#bbburst-blur-4)"></use><use xlink:href="#bbburst-shape-4" width="11.677631100101605" opacity="0.9371632970277923" transform="matrix(0.9886624963180014,-0.15015481468889977,0.15015481468889977,0.9886624963180014,322.02960869898857,30.961280349690355)" fill="#ffbd9b"></use><use xlink:href="#bbburst-shape-4" width="29.862769735968637" opacity="0.2824925412836107" transform="matrix(1.1702353119276865,-0.4393737756369972,0.4393737756369972,1.1702353119276865,-113.93947123978779,-98.6989908947179)" fill="#2c2891" filter="url(#bbburst-blur-3)"></use><use xlink:href="#bbburst-shape-6" width="40.25602324421647" opacity="0.40389785624654595" transform="matrix(0.9998197030773834,-0.01898845276089763,0.01898845276089763,0.9998197030773834,121.23181510558453,-94.04697502275354)" fill="#ffa6d5" filter="url(#bbburst-blur-2)"></use><use xlink:href="#bbburst-shape-4" width="26.063055071177" opacity="0.46173726348810673" transform="matrix(0.9029689070814406,-0.4297058910977933,0.4297058910977933,0.9029689070814406,378.4713431502163,-135.53813857271243)" fill="#2c2891" filter="url(#bbburst-blur-2)"></use><use xlink:href="#bbburst-shape-4" width="26.731127241663007" opacity="0.5991166230911354" transform="matrix(0.9819756124753867,-0.18900766255257814,0.18900766255257814,0.9819756124753867,131.93282442443785,29.227450508466347)" fill="#ffa6d5" filter="url(#bbburst-blur-1)"></use><use xlink:href="#bbburst-shape-8" width="21.98947442356179" opacity="0.5697759236805573" transform="matrix(0.8539749993247223,-0.5203140402952245,0.5203140402952245,0.8539749993247223,22.840364230628808,-45.39017846997615)" fill="none" stroke="#2c2891" filter="url(#bbburst-blur-1)"></use><use xlink:href="#bbburst-shape-8" width="39.62337470893499" opacity="0.09692831278076242" transform="matrix(1.7478322941082143,-0.08707624057351473,0.08707624057351473,1.7478322941082143,526.9846259798547,-653.1560506937385)" fill="none" stroke="#2c2891" filter="url(#bbburst-blur-4)"></use><use xlink:href="#bbburst-shape-6" width="37.823932526667726" opacity="0.15881638960078726" transform="matrix(1.2097827039361353,-0.314524735524844,0.314524735524844,1.2097827039361353,137.26110926827954,282.97835935593497)" fill="#2c2891" filter="url(#bbburst-blur-3)"></use><use xlink:href="#bbburst-shape-1" width="34.021008524465074" opacity="0.1728143477948504" transform="matrix(1.2499901059500165,0.004973432121429072,-0.004973432121429072,1.2499901059500165,742.9755250395046,-14.391526409884364)" fill="#00a19d" filter="url(#bbburst-blur-3)"></use><use xlink:href="#bbburst-shape-4" width="12.17366777413992" opacity="0.8761679714194308" transform="matrix(0.8919645036342142,0.45210543488944016,-0.45210543488944016,0.8919645036342142,588.8809551553483,-13.59896967031932)" fill="#ffa6d5"></use><use xlink:href="#bbburst-shape-4" width="33.81069957717536" opacity="0.4836586902244995" transform="matrix(0.9702913620542202,-0.24193939886460444,0.24193939886460444,0.9702913620542202,364.0084924677333,-203.15745015358374)" fill="#ffa6d5" filter="url(#bbburst-blur-2)"></use><use xlink:href="#bbburst-shape-6" width="19.655692909627604" opacity="0.6774015714377495" transform="matrix(0.9999784060441235,-0.00657171556400539,0.00657171556400539,0.9999784060441235,527.8459849148636,-37.20103074900811)" fill="#ffa6d5" filter="url(#bbburst-blur-1)"></use><use xlink:href="#bbburst-shape-4" width="39.1401476786255" opacity="0.37824767534618264" transform="matrix(0.8850348590107067,-0.4655247558786735,0.4655247558786735,0.8850348590107067,193.23814340539917,-224.64182555075143)" fill="#2c2891" filter="url(#bbburst-blur-2)"></use><use xlink:href="#bbburst-shape-10" width="29.33105580003664" opacity="0.5631388612246447" transform="matrix(0.9791005720862576,-0.20337666960682377,0.20337666960682377,0.9791005720862576,276.53794693398214,205.96115171629918)" fill="none" stroke="#ff5c58" filter="url(#bbburst-blur-1)"></use><use xlink:href="#bbburst-shape-8" width="19.562176076237876" opacity="0.7021727551867583" transform="matrix(0.999807495955674,0.01962067865403936,-0.01962067865403936,0.999807495955674,508.2862236135104,-76.36542995786198)" fill="none" stroke="#ffa6d5" filter="url(#bbburst-blur-1)"></use><use xlink:href="#bbburst-shape-10" width="27.18283436931715" opacity="0.6481230415250628" transform="matrix(0.9158559154930712,-0.4015070884260307,0.4015070884260307,0.9158559154930712,147.7812311128069,-98.01818981851005)" fill="none" stroke="#ffbd9b" filter="url(#bbburst-blur-1)"></use><use xlink:href="#bbburst-shape-4" width="34.854632591740284" opacity="0.05569939214359487" transform="matrix(1.5221149623966812,-0.8635195662219528,0.8635195662219528,1.5221149623966812,382.83568860130566,-427.68839746069943)" fill="#2c2891" filter="url(#bbburst-blur-4)"></use><use xlink:href="#bbburst-shape-6" width="14.194182736533467" opacity="0.9003934399942676" transform="matrix(0.796219261411084,0.6050081716456298,-0.6050081716456298,0.796219261411084,671.7537606900163,49.726148448775575)" fill="#ffa6d5"></use><use xlink:href="#bbburst-shape-10" width="21.47454801369313" opacity="0.8005232454097839" transform="matrix(0.9719059693916045,0.23536946841288817,-0.23536946841288817,0.9719059693916045,405.01104480086445,51.88216758251184)" fill="none" stroke="#ffa6d5"></use><use xlink:href="#bbburst-shape-6" width="29.186520503146813" opacity="0.34964210214847513" transform="matrix(0.9862201830741857,0.1654380563749456,-0.1654380563749456,0.9862201830741857,734.3187255994179,-73.21758156244084)" fill="#ffa6d5" filter="url(#bbburst-blur-2)"></use><use xlink:href="#bbburst-shape-10" width="23.937940457805375" opacity="0.6148164414685555" transform="matrix(0.9990639405567507,-0.04325786262885955,0.04325786262885955,0.9990639405567507,543.9584537793419,7.157090882970181)" fill="none" stroke="#ffbd9b" filter="url(#bbburst-blur-1)"></use><use xlink:href="#bbburst-shape-10" width="42.525259716969295" opacity="0.08731765654615153" transform="matrix(1.6992719780807204,0.4182998260932415,-0.4182998260932415,1.6992719780807204,786.3131002474112,33.25405212666965)" fill="none" stroke="#2c2891" filter="url(#bbburst-blur-4)"></use><use xlink:href="#bbburst-shape-4" width="22.160271443635168" opacity="0.7555052435093335" transform="matrix(0.8166868883845563,0.5770810396649255,-0.5770810396649255,0.8166868883845563,539.050546728556,-5.593384561057121)" fill="#2c2891" filter="url(#bbburst-blur-1)"></use><use xlink:href="#bbburst-shape-6" width="36.03563206798553" opacity="-0.08766347386945017" transform="matrix(1.6296552292801973,-0.6377490365964558,0.6377490365964558,1.6296552292801973,-225.22806100065628,-591.7087309614406)" fill="#00a19d" filter="url(#bbburst-blur-4)"></use><use xlink:href="#bbburst-shape-8" width="32.137692497958916" opacity="0.12014115501186262" transform="matrix(1.1905752575762931,-0.380828775235201,0.380828775235201,1.1905752575762931,396.34178516818014,288.5080554865428)" fill="none" stroke="#ff5c58" filter="url(#bbburst-blur-3)"></use><use xlink:href="#bbburst-shape-6" width="32.65771343428425" opacity="0.18332376686170548" transform="matrix(0.9483541878504771,-0.814324465054601,0.814324465054601,0.9483541878504771,-305.78773095987674,80.28226235222445)" fill="#ffa6d5" filter="url(#bbburst-blur-3)"></use><use xlink:href="#bbburst-shape-4" width="29.878107925998314" opacity="0.5672694238503642" transform="matrix(0.859143584945667,0.511734599618501,-0.511734599618501,0.859143584945667,587.2242020971895,-145.952913433777)" fill="#00a19d" filter="url(#bbburst-blur-1)"></use><use xlink:href="#bbburst-shape-10" width="34.22157144216655" opacity="0.30948319802833124" transform="matrix(0.9405032189868678,0.8233794356645907,-0.8233794356645907,0.9405032189868678,525.4668588450908,-237.8557816959333)" fill="none" stroke="#ffa6d5" filter="url(#bbburst-blur-3)"></use><use xlink:href="#bbburst-shape-4" width="22.095888266336807" opacity="0.5802975391482168" transform="matrix(0.7253270157664461,0.6884044742731861,-0.6884044742731861,0.7253270157664461,516.5192247143384,215.96703612056774)" fill="#ffa6d5" filter="url(#bbburst-blur-1)"></use><use xlink:href="#bbburst-shape-4" width="39.593365152372876" opacity="0.27461262011465293" transform="matrix(1.1377558346348196,0.5176984264554272,-0.5176984264554272,1.1377558346348196,409.6626035553112,210.319663192959)" fill="#00a19d" filter="url(#bbburst-blur-3)"></use><use xlink:href="#bbburst-shape-10" width="27.930923040500872" opacity="0.19396872039842383" transform="matrix(0.9260775482792987,-0.8395715422601002,0.8395715422601002,0.9260775482792987,87.43772055680915,402.19715069891754)" fill="none" stroke="#00a19d" filter="url(#bbburst-blur-3)"></use><use xlink:href="#bbburst-shape-1" width="30.059432011552744" opacity="0.29340294004972045" transform="matrix(1.1854936690976208,0.3963644289406669,-0.3963644289406669,1.1854936690976208,492.16402185346004,234.1317093666686)" fill="#00a19d" filter="url(#bbburst-blur-3)"></use><use xlink:href="#bbburst-shape-4" width="18.009463833870647" opacity="0.8804885722920599" transform="matrix(0.8935772511604784,-0.44890945212646555,0.44890945212646555,0.8935772511604784,266.01569726219907,50.791318859121986)" fill="#00a19d"></use><use xlink:href="#bbburst-shape-4" width="28.295620778365688" opacity="0.4170727623018593" transform="matrix(0.9082098097978253,0.4185151626727495,-0.4185151626727495,0.9082098097978253,350.94795209342703,-134.58463294976977)" fill="#ff5c58" filter="url(#bbburst-blur-2)"></use><use xlink:href="#bbburst-shape-10" width="39.29495645483949" opacity="0.31453902106271014" transform="matrix(1.2490488154044683,0.04875506883078345,-0.04875506883078345,1.2490488154044683,568.1736911231669,-355.80963828530514)" fill="none" stroke="#2c2891" filter="url(#bbburst-blur-3)"></use><use xlink:href="#bbburst-shape-4" width="49.515517995597506" opacity="0.08809385874582298" transform="matrix(1.417126655551645,-1.0267677644555315,1.0267677644555315,1.417126655551645,-405.2095211212227,56.571485918063786)" fill="#2c2891" filter="url(#bbburst-blur-4)"></use><use xlink:href="#bbburst-shape-1" width="21.396372073211587" opacity="0.5370333512470702" transform="matrix(0.9913665388952642,0.13111973748762895,-0.13111973748762895,0.9913665388952642,618.3339416583237,-108.61442688922176)" fill="#2c2891" filter="url(#bbburst-blur-2)"></use><use xlink:href="#bbburst-shape-1" width="9.749771308881067" opacity="0.9501581798322437" transform="matrix(0.9934319237280228,-0.11442470414224352,0.11442470414224352,0.9934319237280228,327.4567028006602,-1.497154523590325)" fill="#2c2891"></use><use xlink:href="#bbburst-shape-4" width="31.0825432764246" opacity="0.25099771470051047" transform="matrix(1.149969415230343,-0.48996973787651726,0.48996973787651726,1.149969415230343,-98.38235422382124,-233.0129366909538)" fill="#ff5c58" filter="url(#bbburst-blur-3)"></use><use xlink:href="#bbburst-shape-10" width="16.345568931485595" opacity="0.7595146085892718" transform="matrix(0.7286944634400381,-0.6848389438049176,0.6848389438049176,0.7286944634400381,78.82950236658604,14.083097398798486)" fill="none" stroke="#2c2891" filter="url(#bbburst-blur-1)"></use><use xlink:href="#bbburst-shape-6" width="35.62165618943644" opacity="0.4914040076874503" transform="matrix(0.9065568448709255,-0.42208374408128163,0.42208374408128163,0.9065568448709255,146.33650849274358,-173.4237695712036)" fill="#00a19d" filter="url(#bbburst-blur-2)"></use><use xlink:href="#bbburst-shape-6" width="28.446124570413055" opacity="0.4101295922376166" transform="matrix(0.984284008220931,0.17659272680531957,-0.17659272680531957,0.984284008220931,192.1514286514775,26.278328674685497)" fill="#2c2891" filter="url(#bbburst-blur-2)"></use><use xlink:href="#bbburst-shape-1" width="20.157904123041657" opacity="0.6977294841064882" transform="matrix(0.9991915957340741,-0.04020143050184311,0.04020143050184311,0.9991915957340741,498.50562234544213,55.18615479016273)" fill="#ffbd9b" filter="url(#bbburst-blur-1)"></use><use xlink:href="#bbburst-shape-10" width="19.047380823866995" opacity="0.6898673007154247" transform="matrix(0.9996661754838936,-0.025836748893876348,0.025836748893876348,0.9996661754838936,352.1634639737709,137.10544810385562)" fill="none" stroke="#ffbd9b" filter="url(#bbburst-blur-1)"></use><use xlink:href="#bbburst-shape-10" width="33.53129224179657" opacity="0.05149875653541547" transform="matrix(1.5791467718743888,-0.754185304072346,0.754185304072346,1.5791467718743888,-285.43659448276,-452.5223765536763)" fill="none" stroke="#ffa6d5" filter="url(#bbburst-blur-4)"></use><use xlink:href="#bbburst-shape-4" width="38.285690861754304" opacity="0.16064269953814458" transform="matrix(1.2477140609512873,-0.0755620414258838,0.0755620414258838,1.2477140609512873,703.7848489282628,-218.33854971140005)" fill="#2c2891" filter="url(#bbburst-blur-3)"></use><use xlink:href="#bbburst-shape-4" width="33.46734375088285" opacity="0.5579653663125547" transform="matrix(0.963281177111816,0.26849464393554334,-0.26849464393554334,0.963281177111816,676.2662578856153,83.32626564230941)" fill="#ffbd9b" filter="url(#bbburst-blur-1)"></use><use xlink:href="#bbburst-shape-6" width="18.316072113779718" opacity="0.6904797809281888" transform="matrix(0.9975061712369164,-0.07057930535410172,0.07057930535410172,0.9975061712369164,389.0119757771472,138.4074485753793)" fill="#2c2891" filter="url(#bbburst-blur-1)"></use><use xlink:href="#bbburst-shape-6" width="50.8098200596378" opacity="-0.09048682010590059" transform="matrix(1.7481336692951726,-0.08080021210737533,0.08080021210737533,1.7481336692951726,669.0211387400888,51.025058860948434)" fill="#ffa6d5" filter="url(#bbburst-blur-4)"></use><use xlink:href="#bbburst-shape-4" width="30.534947031863908" opacity="0.30617134866385287" transform="matrix(1.0724263959320965,0.6421850397728791,-0.6421850397728791,1.0724263959320965,736.9809739198181,-335.68184991973857)" fill="#2c2891" filter="url(#bbburst-blur-3)"></use><use xlink:href="#bbburst-shape-10" width="34.896676313389676" opacity="0.27656935590822374" transform="matrix(1.139674666123205,0.5134604711143416,-0.5134604711143416,1.139674666123205,814.2287789684603,166.82024771463796)" fill="none" stroke="#ff5c58" filter="url(#bbburst-blur-3)"></use><use xlink:href="#bbburst-shape-6" width="40.92369505052156" opacity="0.3324193641226071" transform="matrix(1.211769752119652,0.30678016208333486,-0.30678016208333486,1.211769752119652,254.40564591153853,84.93930088698005)" fill="#2c2891" filter="url(#bbburst-blur-3)"></use><use xlink:href="#bbburst-shape-4" width="19.83064325779606" opacity="0.7271848271577942" transform="matrix(0.9785441942774294,0.206037035131882,-0.206037035131882,0.9785441942774294,553.8587117216508,98.67833497303485)" fill="#00a19d" filter="url(#bbburst-blur-1)"></use><use xlink:href="#bbburst-shape-4" width="11.584825625466811" opacity="0.8777470051283681" transform="matrix(0.8687154607819273,-0.4953114658459298,0.4953114658459298,0.8687154607819273,197.88024273276042,110.39617445400768)" fill="#2c2891"></use><use xlink:href="#bbburst-shape-6" width="31.5723613222953" opacity="0.4135502493295108" transform="matrix(0.8797585772430081,-0.47542070397423597,0.47542070397423597,0.8797585772430081,208.04692904372797,319.2266702058798)" fill="#ffa6d5" filter="url(#bbburst-blur-2)"></use><use xlink:href="#bbburst-shape-8" width="21.645721844257984" opacity="0.524043376927489" transform="matrix(0.935270053210325,0.35393491996122106,-0.35393491996122106,0.935270053210325,584.3867881417527,229.5973009789123)" fill="none" stroke="#2c2891" filter="url(#bbburst-blur-2)"></use><use xlink:href="#bbburst-shape-6" width="36.92665355840519" opacity="0.30777824474093307" transform="matrix(1.0744496088820241,0.6387942062771588,-0.6387942062771588,1.0744496088820241,745.3147523622004,249.99487927309917)" fill="#00a19d" filter="url(#bbburst-blur-3)"></use><use xlink:href="#bbburst-shape-10" width="20.78333963259487" opacity="0.6658878544308471" transform="matrix(0.7341651665138472,0.6789709185802401,-0.6789709185802401,0.7341651665138472,525.1265977943581,156.99118645107194)" fill="none" stroke="#00a19d" filter="url(#bbburst-blur-1)"></use><use xlink:href="#bbburst-shape-1" width="32.644446174705976" opacity="0.4793032684160672" transform="matrix(0.9324983738261678,0.36117417240377614,-0.36117417240377614,0.9324983738261678,312.3003068231698,109.703069676143)" fill="#ffa6d5" filter="url(#bbburst-blur-2)"></use><use xlink:href="#bbburst-shape-4" width="16.12410770796982" opacity="0.7953208175287173" transform="matrix(0.9999251416029598,0.012235652426448881,-0.012235652426448881,0.9999251416029598,409.09029192978306,-91.34039881153973)" fill="#2c2891"></use><use xlink:href="#bbburst-shape-10" width="16.385091915508283" opacity="0.8186099040017127" transform="matrix(0.9194709670668528,-0.3931579081248989,0.3931579081248989,0.9194709670668528,304.4015467599312,78.72729352814531)" fill="none" stroke="#2c2891"></use><use xlink:href="#bbburst-shape-4" width="28.827636747743984" opacity="0.44530432535466224" transform="matrix(0.9956484673240736,0.09318867696894889,-0.09318867696894889,0.9956484673240736,672.377942753989,9.27582996926617)" fill="#ffa6d5" filter="url(#bbburst-blur-2)"></use><use xlink:href="#bbburst-shape-10" width="16.267094379427643" opacity="0.6687115604675644" transform="matrix(0.8811570862390585,-0.472823634530564,0.472823634530564,0.8811570862390585,70.44964488508376,-15.461446028571231)" fill="none" stroke="#00a19d" filter="url(#bbburst-blur-1)"></use><use xlink:href="#bbburst-shape-10" width="19.886303005267685" opacity="0.806726852356148" transform="matrix(0.7756279144735841,0.6311904136545156,-0.6311904136545156,0.7756279144735841,726.6092861688893,54.051151433021005)" fill="none" stroke="#ffbd9b"></use><use xlink:href="#bbburst-shape-4" width="35.46836192312303" opacity="0.16187422902499515" transform="matrix(0.9165833346216467,-0.8499264619329501,0.8499264619329501,0.9165833346216467,-317.2694200566177,-60.50178875464286)" fill="#ffa6d5" filter="url(#bbburst-blur-3)"></use><use xlink:href="#bbburst-shape-4" width="35.22318184346893" opacity="0.12078272890149666" transform="matrix(1.2346487563913255,-0.19530091741042435,0.19530091741042435,1.2346487563913255,36.24088702881913,-385.1575360267871)" fill="#ff5c58" filter="url(#bbburst-blur-3)"></use><use xlink:href="#bbburst-shape-10" width="31.60117566296942" opacity="0.4316796853006908" transform="matrix(0.8527698543132138,0.5222868709575419,-0.5222868709575419,0.8527698543132138,500.2750313258803,288.01822286409094)" fill="none" stroke="#2c2891" filter="url(#bbburst-blur-2)"></use><use xlink:href="#bbburst-shape-10" width="25.859296452438166" opacity="0.6170389452433476" transform="matrix(0.9077525560251287,-0.4195060154870791,0.4195060154870791,0.9077525560251287,301.7196210422046,194.2949648053708)" fill="none" stroke="#00a19d" filter="url(#bbburst-blur-1)"></use><use xlink:href="#bbburst-shape-4" width="13.630993108156055" opacity="0.9286694514139308" transform="matrix(0.9711381486532535,-0.23851770632456457,0.23851770632456457,0.9711381486532535,288.52569842547314,-17.493365016107134)" fill="#2c2891"></use><use xlink:href="#bbburst-shape-4" width="19.863335545337694" opacity="0.6314852204137168" transform="matrix(0.7394765034117831,-0.6731823682345545,0.6731823682345545,0.7394765034117831,174.21610402535953,-46.94372665840558)" fill="#ffa6d5" filter="url(#bbburst-blur-1)"></use><use xlink:href="#bbburst-shape-1" width="37.23134929098029" opacity="0.4367643210720955" transform="matrix(0.9881855457541201,-0.1532622822570245,0.1532622822570245,0.9881855457541201,457.3104220308237,220.86312549068077)" fill="#00a19d" filter="url(#bbburst-blur-2)"></use><use xlink:href="#bbburst-shape-6" width="35.91283787332645" opacity="0.22933773682776126" transform="matrix(1.0583260523915718,-0.6651661197244428,0.6651661197244428,1.0583260523915718,424.93031957884716,144.0769563212562)" fill="#ffa6d5" filter="url(#bbburst-blur-3)"></use><use xlink:href="#bbburst-shape-4" width="14.14048509177597" opacity="0.8084920260706255" transform="matrix(0.9951215969364059,-0.09865600494008116,0.09865600494008116,0.9951215969364059,390.3677986389859,80.5573678459483)" fill="#00a19d"></use><use xlink:href="#bbburst-shape-4" width="19.293319577194648" opacity="0.7533753494633307" transform="matrix(0.9936643113697076,-0.11238877306103472,0.11238877306103472,0.9936643113697076,292.9710784258557,101.41939112253874)" fill="#ff5c58" filter="url(#bbburst-blur-1)"></use><use xlink:href="#bbburst-shape-6" width="31.960290581430954" opacity="0.4524035099977701" transform="matrix(0.9017429878209107,-0.43227258057366635,0.43227258057366635,0.9017429878209107,47.701172849022015,229.25092983745867)" fill="#ffbd9b" filter="url(#bbburst-blur-2)"></use><use xlink:href="#bbburst-shape-6" width="14.144041956316626" opacity="0.747041469851464" transform="matrix(0.9785954862154965,0.20579328064505892,-0.20579328064505892,0.9785954862154965,362.746151032508,23.46011628143407)" fill="#2c2891" filter="url(#bbburst-blur-1)"></use><use xlink:href="#bbburst-shape-10" width="14.918941156173583" opacity="0.8654048785835422" transform="matrix(0.9904893776576572,0.1375892174094575,-0.1375892174094575,0.9904893776576572,398.2336920728067,-32.247310940046134)" fill="none" stroke="#00a19d"></use><use xlink:href="#bbburst-shape-4" width="13.90431222180582" opacity="0.7152305545034201" transform="matrix(0.7711478690242214,-0.6366560799202362,0.6366560799202362,0.7711478690242214,14.065657137623873,72.18773652660695)" fill="#2c2891" filter="url(#bbburst-blur-1)"></use><use xlink:href="#bbburst-shape-1" width="14.778786727871484" opacity="0.9704777905261691" transform="matrix(0.7676514305459892,-0.6408676003518171,0.6408676003518171,0.7676514305459892,151.13288951360312,95.73360802056885)" fill="#00a19d"></use><use xlink:href="#bbburst-shape-8" width="25.09658527322831" opacity="0.1796474002108156" transform="matrix(1.242143424306523,0.1399275292859315,-0.1399275292859315,1.242143424306523,501.4351992842845,-462.68862921773456)" fill="none" stroke="#00a19d" filter="url(#bbburst-blur-3)"></use><use xlink:href="#bbburst-shape-10" width="16.612182332621117" opacity="0.8152933860679701" transform="matrix(0.9284106654756435,0.37155569734707694,-0.37155569734707694,0.9284106654756435,597.0559506198767,-35.739276297807976)" fill="none" stroke="#2c2891"></use><use xlink:href="#bbburst-shape-6" width="37.9296659626596" opacity="-0.08137556562598336" transform="matrix(1.7434860313667677,0.15085243925425512,-0.15085243925425512,1.7434860313667677,77.46551622497991,38.02152183116061)" fill="#2c2891" filter="url(#bbburst-blur-4)"></use><use xlink:href="#bbburst-shape-4" width="21.45933883225265" opacity="0.7687831293857579" transform="matrix(0.8383803510045569,0.5450856694589172,-0.5450856694589172,0.8383803510045569,712.7197595350007,67.41440413976028)" fill="#ffbd9b" filter="url(#bbburst-blur-1)"></use><use xlink:href="#bbburst-shape-10" width="15.033885815479515" opacity="0.8242091478626943" transform="matrix(0.9729455957932184,-0.23103434295917866,0.23103434295917866,0.9729455957932184,222.42172048326316,-1.4761289216559703)" fill="none" stroke="#2c2891"></use><use xlink:href="#bbburst-shape-6" width="38.28882373394235" opacity="0.06219824180128508" transform="matrix(1.621494948680911,-0.6582204276701611,0.6582204276701611,1.621494948680911,457.48957361159296,-2.938574618943221)" fill="#2c2891" filter="url(#bbburst-blur-4)"></use><use xlink:href="#bbburst-shape-4" width="13.73001216588161" opacity="0.9067560159738489" transform="matrix(0.8477713201794652,-0.5303619412072916,0.5303619412072916,0.8477713201794652,209.58189218650017,96.20007498380068)" fill="#2c2891"></use><use xlink:href="#bbburst-shape-1" width="34.18712684071678" opacity="0.3148874718092708" transform="matrix(0.9985870903732328,-0.7518801918789464,0.7518801918789464,0.9985870903732328,340.99690015883965,-154.10785870132065)" fill="#00a19d" filter="url(#bbburst-blur-3)"></use><use xlink:href="#bbburst-shape-4" width="31.2408588680848" opacity="0.511995404604018" transform="matrix(0.7928609926778116,0.6094025322313283,-0.6094025322313283,0.7928609926778116,842.458918345913,12.845847866699671)" fill="#00a19d" filter="url(#bbburst-blur-2)"></use><use xlink:href="#bbburst-shape-10" width="16.196322872519968" opacity="0.8491003777493688" transform="matrix(0.7900559581893588,0.6130347322374926,-0.6130347322374926,0.7900559581893588,599.6162019984673,134.4608882543929)" fill="none" stroke="#00a19d"></use><use xlink:href="#bbburst-shape-10" width="15.843331536315185" opacity="0.7082653623802041" transform="matrix(0.9421692230343851,-0.3351375167998698,0.3351375167998698,0.9421692230343851,163.78142856910554,116.70743053065138)" fill="none" stroke="#ffa6d5" filter="url(#bbburst-blur-1)"></use><use xlink:href="#bbburst-shape-1" width="15.391711660842587" opacity="0.8459886360173383" transform="matrix(0.8965586635942383,0.44292500802518864,-0.44292500802518864,0.8965586635942383,543.3912124161757,-25.898556177622652)" fill="#2c2891"></use><use xlink:href="#bbburst-shape-10" width="28.31615658168205" opacity="0.54139028931423" transform="matrix(0.8632293615731146,-0.5048119147940874,0.5048119147940874,0.8632293615731146,-16.918262427873344,23.463059066964377)" fill="none" stroke="#2c2891" filter="url(#bbburst-blur-2)"></use><use xlink:href="#bbburst-shape-6" width="38.31987381473962" opacity="0.3100316001035962" transform="matrix(0.9372467349137291,0.8270843716898258,-0.8270843716898258,0.9372467349137291,603.2876009196923,-281.2479386495624)" fill="#ffa6d5" filter="url(#bbburst-blur-3)"></use><use xlink:href="#bbburst-shape-10" width="34.93845771569018" opacity="0.09873134556436414" transform="matrix(1.6137864552962657,0.6768997538057713,-0.6768997538057713,1.6137864552962657,454.8642057601984,-616.8599413412038)" fill="none" stroke="#ff5c58" filter="url(#bbburst-blur-4)"></use><use xlink:href="#bbburst-shape-4" width="29.85928054217353" opacity="0.5022330593803415" transform="matrix(0.9774072519477078,0.21136476489715603,-0.21136476489715603,0.9774072519477078,340.7784156733085,-177.09225486906124)" fill="#ffa6d5" filter="url(#bbburst-blur-2)"></use><use xlink:href="#bbburst-shape-4" width="26.60014150720148" opacity="0.43446439510300916" transform="matrix(0.741872126844018,-0.6705413838175338,0.6705413838175338,0.741872126844018,326.93635768837146,262.98246034739776)" fill="#ffa6d5" filter="url(#bbburst-blur-2)"></use><use xlink:href="#bbburst-shape-6" width="34.29215993294643" opacity="0.1884979295607373" transform="matrix(1.2279930328515225,-0.23352325637528978,0.23352325637528978,1.2279930328515225,228.57344111356645,-447.89866665193017)" fill="#2c2891" filter="url(#bbburst-blur-3)"></use><use xlink:href="#bbburst-shape-10" width="15.658490323809009" opacity="0.8875600763744846" transform="matrix(0.8884074302774844,0.4590558112340555,-0.4590558112340555,0.8884074302774844,527.9467592623872,54.700035995822134)" fill="none" stroke="#ffbd9b"></use><use xlink:href="#bbburst-shape-4" width="34.25642258603265" opacity="0.0538344610430993" transform="matrix(1.4675889545248166,-0.9532484778675262,0.9532484778675262,1.4675889545248166,-240.89272890057455,184.72514284522697)" fill="#ffbd9b" filter="url(#bbburst-blur-4)"></use><use xlink:href="#bbburst-shape-6" width="42.9408457359968" opacity="0.2693761929850417" transform="matrix(1.2050470922400371,0.3322070220266746,-0.3322070220266746,1.2050470922400371,198.16094849735504,23.58396599624558)" fill="#2c2891" filter="url(#bbburst-blur-3)"></use><use xlink:href="#bbburst-shape-4" width="16.20095131935123" opacity="0.7361740588346171" transform="matrix(0.7953472726751704,0.6061540364034279,-0.6061540364034279,0.7953472726751704,693.5059163785681,-26.90773567552486)" fill="#ffa6d5" filter="url(#bbburst-blur-1)"></use><use xlink:href="#bbburst-shape-10" width="28.01379057035323" opacity="0.5894714621989351" transform="matrix(0.7551269704706677,-0.655578567730666,0.655578567730666,0.7551269704706677,261.84864162523576,233.60533987700597)" fill="none" stroke="#00a19d" filter="url(#bbburst-blur-1)"></use><use xlink:href="#bbburst-shape-6" width="22.150576144522674" opacity="0.6144258236111075" transform="matrix(0.9998138378272785,-0.019294809900293062,0.019294809900293062,0.9998138378272785,489.14006596773214,-135.56447346683677)" fill="#00a19d" filter="url(#bbburst-blur-1)"></use></svg>