<svg xmlns="http://www.w3.org/2000/svg" version="1.1" xmlns:xlink="http://www.w3.org/1999/xlink" xmlns:svgjs="http://svgjs.dev/svgjs" viewBox="0 0 800 800"><defs><linearGradient x1="50%" y1="0%" x2="50%" y2="100%" id="ccchaos-grad"><stop stop-color="hsl(162, 100%, 58%)" stop-opacity="1" offset="0%"></stop><stop stop-color="hsl(270, 73%, 53%)" stop-opacity="1" offset="100%"></stop></linearGradient></defs><g stroke-width="2" stroke="url(#ccchaos-grad)" fill="none" stroke-linecap="round"><path d="M379.34 70.58Q395.14 74.11 411.37 78.77 419.79 82.35 428.38 86.94 437.18 92.59 446.18 99.31 455.38 107 464.8 115.48 474.44 124.51 484.3 133.8 494.38 143.03 504.67 151.88 515.17 160.05 525.87 167.27 536.77 173.36 547.85 178.23 559.11 181.86 570.52 184.35 582.07 185.87 593.74 186.7 605.52 187.16 617.38 187.61 629.3 188.42 641.26 189.95 653.23 192.49 665.2 196.28 677.12 201.45 688.99 208.03 700.77 215.93 712.44 224.98 716.69 235.09 720.03 245.21 722.37 255.33 723.64 265.44 723.79 275.56 722.83 285.68 720.79 295.79 717.71 305.91 713.7 316.03 708.87 326.14 703.37 336.26 697.36 346.38 691 356.49 684.51 366.61 678.05 376.73 671.83 386.84 666.03 396.96 660.81 407.08 656.34 417.19 652.75 427.31 650.13 437.43 648.58 447.54 648.13 457.66 648.79 467.78 650.56 477.89 653.37 488.01 657.14 498.13 661.77 508.25 667.11 518.36 673 528.48 673.96 546.08 662.16 553.95 655.9 561.04 649.45 570.49 642.8 581.99 635.94 595.06 628.86 609.11 621.55 623.46 614 637.39 606.2 650.21 598.16 661.31 589.88 670.21 581.35 676.59 572.57 680.33 563.57 681.5 554.33 680.39 544.88 677.47 535.22 673.33 525.37 668.71 515.33 664.34 505.13 660.99 494.77 659.32 484.29 659.89 473.69 663.08 462.99 669.07 452.21 677.82 441.37 689.09 430.48 702.43 419.58 717.22 408.67 732.71 393.62 740.68 378.12 743.49 370.08 740.64 361.88 734.97 353.51 726.55 344.98 715.66 336.29 702.77 327.44 688.51 318.45 673.58 309.31 658.75 300.04 644.76 290.64 632.29 281.13 621.89 271.51 613.92 261.8 608.6 252.02 605.89 242.17 605.58 232.27 607.27 222.33 610.4 212.36 614.32 202.39 618.32 192.41 621.7 182.45 623.79 172.51 624.06 162.6 622.1 152.74 617.7 142.94 610.83 133.21 601.65 123.54 590.5 113.95 577.86 112.73 567.38 111.55 556.9 110.44 546.42 109.44 535.94 108.56 525.47 107.85 514.99 107.33 504.51 106.99 494.03 106.87 483.55 106.95 473.07 107.25 462.59 107.74 452.12 108.41 441.64 109.26 431.16 110.24 420.68 111.33 410.2 112.5 399.72 113.71 389.25 114.94 378.77 116.13 368.29 117.27 357.81 118.3 347.33 119.21 336.85 119.96 326.38 120.54 315.9 120.93 305.42 121.11 294.94 121.08 284.46 120.84 273.98 120.4 263.51 123.76 247.36 136.44 239.84 145.03 236.73 153.51 232.25 161.89 226.37 170.16 219.17 178.34 210.84 186.43 201.65 194.42 191.93 202.33 182.05 210.17 172.36 217.94 163.22 225.66 154.92 233.33 147.68 248.59 137.43 263.83 130.63 279.19 127.7 294.7 125.4 310.62 121.14 326.87 114.28 335.21 109.05 343.71 102.78 352.36 95.6 361.18 87.67 374.76 74.91 379.34 70.58" stroke-dasharray="6 0" transform="rotate(0, 400, 400)" opacity="0.22"></path><path d="M377.93 83.31Q393.85 86.44 410.24 90.59 418.74 93.84 427.41 98.01 436.28 103.21 445.33 109.42 454.58 116.6 464.02 124.6 473.66 133.22 483.5 142.21 493.52 151.28 503.72 160.14 514.1 168.49 524.65 176.07 535.35 182.68 546.2 188.17 557.18 192.48 568.27 195.63 579.47 197.72 590.75 198.94 602.09 199.55 613.48 199.85 624.9 200.16 636.32 200.84 647.72 202.2 659.08 204.52 670.38 208.01 681.6 212.79 692.71 218.92 703.7 226.33 707.22 235.96 709.87 245.59 711.56 255.22 712.26 264.86 711.94 274.49 710.61 284.12 708.31 293.75 705.1 303.39 701.06 313.02 696.32 322.65 691 332.28 685.23 341.92 679.19 351.55 673.04 361.18 666.93 370.81 661.05 380.45 655.55 390.08 650.58 399.71 646.27 409.34 642.75 418.98 640.11 428.61 638.42 438.24 637.73 447.87 638.06 457.51 639.39 467.14 641.7 476.77 644.91 486.4 648.95 496.04 653.69 505.67 659.02 515.3 665.06 530.02 659.75 537.65 654.08 542.41 648.31 549.42 642.41 558.57 636.37 569.56 630.16 582 623.79 595.35 617.23 609.03 610.47 622.4 603.51 634.85 596.34 645.83 588.95 654.9 581.35 661.73 565.36 667.11 548.73 666.05 540.04 662.67 531.15 658.5 522.07 654.2 512.8 650.43 503.36 647.83 493.76 646.95 484.01 648.24 474.12 651.98 464.12 658.3 454.01 667.1 443.81 678.16 433.54 691.04 423.21 705.2 412.84 719.98 397.79 727.56 382.28 730.56 374.24 728.23 366.05 723.35 357.7 715.93 349.2 706.17 340.56 694.43 331.77 681.23 322.86 667.17 313.82 652.9 304.67 639.1 295.41 626.38 286.07 615.3 276.64 606.26 267.14 599.55 257.58 595.26 247.98 593.31 238.34 593.46 228.69 595.33 219.02 598.41 209.36 602.11 199.71 605.8 190.08 608.88 180.49 610.76 170.94 610.97 161.45 609.18 152.01 605.16 142.64 598.89 133.35 590.47 124.13 580.19 122.88 570.01 121.69 559.83 120.59 549.65 119.6 539.47 118.77 529.29 118.1 519.11 117.62 508.92 117.35 498.74 117.28 488.56 117.42 478.38 117.77 468.2 118.32 458.02 119.05 447.84 119.94 437.66 120.97 427.48 122.11 417.29 123.33 407.11 124.59 396.93 125.86 386.75 127.11 376.57 128.31 366.39 129.41 356.21 130.39 346.03 131.23 335.85 131.89 325.67 132.37 315.48 132.64 305.3 132.71 295.12 132.57 284.94 132.22 274.76 135.55 258.52 147.84 249.29 156.15 244.82 164.35 239.02 172.46 231.98 180.47 223.87 188.39 214.95 196.21 205.5 203.93 195.87 211.57 186.38 219.13 177.36 226.62 169.09 234.04 161.79 241.4 155.6 255.99 147.26 270.5 141.98 285.02 139.77 299.61 137.74 314.48 133.35 329.58 126.34 337.31 121.09 345.15 114.87 353.13 107.78 361.24 100.01 373.72 87.54 377.93 83.31" stroke-dasharray="1 3" transform="rotate(4.04, 400, 400)" opacity="0.96"></path><path d="M377.5 96.04Q393.54 98.78 410.05 102.46 418.6 105.37 427.31 109.14 436.2 113.88 445.26 119.59 454.5 126.24 463.9 133.73 473.48 141.89 483.21 150.51 493.11 159.34 503.15 168.11 513.34 176.54 523.66 184.39 534.09 191.44 544.64 197.5 555.28 202.48 566 206.34 576.78 209.11 587.61 210.9 598.47 211.9 609.34 212.34 620.21 212.5 631.06 212.68 641.86 213.19 652.6 214.33 663.25 216.34 673.81 219.44 684.25 223.75 694.56 229.32 697.38 238.51 699.37 247.7 700.46 256.89 700.64 266.07 699.9 275.26 698.25 284.45 695.74 293.64 692.43 302.83 688.41 312.02 683.77 321.21 678.63 330.4 673.13 339.58 667.4 348.77 661.58 357.96 655.82 367.15 650.27 376.34 645.06 385.53 640.33 394.72 636.2 403.9 632.76 413.09 630.11 422.28 628.31 431.47 627.41 440.66 627.43 449.85 628.37 459.03 630.21 468.22 632.89 477.41 636.36 486.6 640.52 495.79 645.28 504.98 650.62 520.26 645.38 531.4 639.97 538.48 634.47 547.46 628.89 558.09 623.2 569.99 617.38 582.7 611.43 595.71 605.33 608.46 599.07 620.42 592.64 631.11 586.03 640.12 572.15 650.91 557.7 655.28 542.27 650.93 526.26 643.77 517.92 639.91 509.41 636.8 500.72 634.96 491.87 634.85 482.86 636.8 473.71 641.04 464.42 647.61 455.02 656.42 445.5 667.23 435.89 679.64 426.19 693.17 416.43 707.25 401.34 714.45 385.8 717.58 377.76 715.74 369.59 711.58 361.27 705.1 352.82 696.42 344.24 685.83 335.54 673.73 326.74 660.61 317.83 647.04 308.83 633.61 299.74 620.88 290.59 609.37 281.38 599.51 272.11 591.62 262.81 585.88 253.48 582.34 244.13 580.9 234.78 581.3 225.44 583.2 216.11 586.13 206.8 589.58 197.53 593 188.3 595.85 179.12 597.64 170 597.95 160.94 596.46 151.95 592.97 143.04 587.43 134.2 579.91 132.94 570.06 131.76 560.21 130.68 550.37 129.74 540.52 128.95 530.68 128.34 520.83 127.93 510.98 127.71 501.14 127.71 491.29 127.91 481.44 128.32 471.6 128.92 461.75 129.7 451.91 130.64 442.06 131.71 432.21 132.89 422.37 134.14 412.52 135.45 402.67 136.77 392.83 138.06 382.98 139.31 373.14 140.47 363.29 141.52 353.44 142.44 343.6 143.18 333.75 143.75 323.9 144.13 314.06 144.3 304.21 144.25 294.36 144.01 284.52 147.34 268.09 159.26 256.94 167.29 251.12 175.23 244.16 183.08 236.21 190.83 227.5 198.49 218.31 206.06 208.94 213.53 199.69 220.91 190.86 228.21 182.71 235.43 175.45 249.63 164.65 263.66 157.11 277.48 153.88 291.25 152.01 305.04 149.82 318.91 145.97 333.04 137.87 347.4 126.91 354.75 119.93 362.21 112.33 373.64 100.17 377.5 96.04" stroke-dasharray="11 1" transform="rotate(8.08, 400, 400)" opacity="0.84"></path><path d="M378.07 108.79Q394.19 111.16 410.75 114.38 419.3 116.96 428.01 120.35 436.86 124.63 445.87 129.84 455.03 135.95 464.33 142.91 473.77 150.57 483.34 158.75 493.04 167.26 502.85 175.84 512.77 184.26 522.79 192.27 532.9 199.65 543.07 206.21 553.31 211.82 563.6 216.38 573.91 219.89 584.25 222.38 594.58 223.96 604.9 224.81 615.19 225.12 625.43 225.16 635.61 225.2 645.71 225.52 655.72 226.39 665.61 228.04 681.28 236.93 688.54 251.98 689.08 260.77 688.8 269.55 687.68 278.34 685.77 287.13 683.09 295.91 679.73 304.7 675.74 313.49 671.23 322.27 666.29 331.06 661.05 339.85 655.63 348.63 650.14 357.42 644.72 366.21 639.49 375 634.57 383.78 630.08 392.57 626.12 401.36 622.78 410.14 620.13 418.93 618.25 427.72 617.17 436.5 616.91 445.29 617.49 454.08 618.89 462.86 621.08 471.65 624.01 480.43 627.6 489.22 631.78 498.01 636.4 513.9 631.16 528.26 625.95 537.19 620.7 547.54 615.39 558.98 610 571.11 604.52 583.46 598.93 595.56 593.24 606.94 587.41 617.2 575.27 631.97 562.67 641.05 549.24 640.9 535.3 636.56 520.49 629.4 505.16 623.46 489.01 623.97 472.4 630.23 463.84 637 455.15 645.77 446.34 656.29 437.42 668.22 428.4 681.13 419.29 694.51 404.15 701.32 388.6 704.54 380.58 703.14 372.44 699.66 364.18 694.05 355.8 686.41 347.32 676.94 338.74 665.94 330.07 653.84 321.32 641.08 312.5 628.19 303.63 615.66 294.7 603.96 285.73 593.53 276.73 584.71 267.71 577.74 258.68 572.73 249.65 569.71 240.62 568.56 231.62 569.04 222.64 570.84 213.7 573.56 204.79 576.75 195.94 579.93 187.14 582.63 178.41 584.42 169.73 584.93 161.13 583.86 147.76 573.93 141.76 557.38 140.72 547.91 139.84 538.44 139.12 528.97 138.58 519.5 138.23 510.04 138.09 500.57 138.15 491.1 138.42 481.63 138.88 472.16 139.53 462.69 140.36 453.22 141.33 443.75 142.44 434.28 143.66 424.82 144.94 415.35 146.28 405.88 147.63 396.41 148.97 386.94 150.26 377.47 151.48 368 152.59 358.53 153.58 349.06 154.41 339.59 155.07 330.12 155.54 320.66 155.81 311.19 155.88 301.72 155.75 292.25 159.11 275.67 170.66 262.64 178.43 255.68 186.11 247.82 193.71 239.29 201.21 230.34 208.62 221.24 215.94 212.27 223.17 203.69 230.31 195.74 237.37 188.61 244.34 182.44 258.02 173.73 271.51 167.97 284.73 165.75 297.85 164.4 310.88 162.15 323.93 158.1 337.11 149.85 350.44 138.92 357.21 132.07 364.07 124.63 374.55 112.79 378.07 108.79" stroke-dasharray="9 7" transform="rotate(12.12, 400, 400)" opacity="0.49"></path><path d="M379.62 121.52Q395.67 123.42 412.26 126.33 429.39 131.62 447.03 140.16 465.16 152.13 483.73 166.96 502.68 183.37 521.93 199.71 541.39 214.26 560.97 225.65 580.57 233.16 600.09 236.91 619.4 237.9 638.4 237.76 656.98 238.43 675.04 241.77 677.38 258.62 676.74 275.47 673.18 292.32 666.99 309.17 658.7 326.02 649 342.87 638.72 359.73 628.71 376.58 619.82 393.43 612.79 410.28 608.23 427.13 606.5 443.98 607.75 460.83 611.89 477.68 618.56 494.53 627.21 511.38 617.15 527.82 607.07 549 596.85 572.26 586.4 594.42 575.6 612.47 564.39 624.26 552.69 628.99 540.44 627.39 527.6 621.63 514.16 614.85 500.09 610.46 485.42 611.42 470.16 619.56 454.35 635.14 438.04 656.8 421.29 681.78 406.2 688.74 390.6 691.48 374.56 687.59 358.13 676.15 341.35 657.87 324.31 634.97 307.08 610.62 289.72 588.24 272.3 570.77 254.91 560 237.6 556.25 220.43 558.29 203.45 563.65 186.7 569.22 170.22 571.87 154.03 569.18 151.72 551.08 149.94 532.98 148.83 514.88 148.5 496.77 148.96 478.67 150.18 460.57 152.06 442.47 154.43 424.36 157.11 406.26 159.86 388.16 162.45 370.05 164.67 351.95 166.32 333.85 167.27 315.75 167.44 297.64 166.82 279.54 182.05 266.44 196.98 250.26 211.58 232.73 225.83 215.78 239.74 201.19 253.3 190.14 266.55 183 279.51 179.29 292.21 177.79 304.73 176.86 317.11 174.77 329.43 170.15 341.76 162.2 354.18 150.89 366.78 136.91 379.62 121.52 379.62 121.52 379.62 121.52" stroke-dasharray="1 8" transform="rotate(16.16, 400, 400)" opacity="0.25"></path><path d="M382.09 134.25Q398.04 135.84 414.45 138.33 431.32 142.96 448.61 150.58 466.27 161.44 484.26 175.16 502.51 190.75 520.94 206.77 539.48 221.68 558.04 234.09 576.53 243.07 594.85 248.37 612.91 250.49 630.63 250.59 647.9 250.3 664.66 251.35 665.91 267.54 664.48 283.74 660.48 299.93 654.23 316.12 646.19 332.32 636.98 348.51 627.31 364.7 617.93 380.9 609.55 397.09 602.82 413.28 598.24 429.48 596.18 445.67 596.79 461.86 600.02 478.05 605.63 494.25 613.18 510.44 603.37 529.39 593.62 551.04 583.83 572.77 573.89 591.85 563.73 606.07 553.26 614.12 542.41 615.94 531.13 612.74 519.37 606.75 507.09 600.8 494.28 597.81 480.92 600.1 467.03 609.02 452.61 624.55 437.7 645.37 422.34 669.05 407.27 675.55 391.79 678.39 375.95 675.4 359.8 665.63 343.4 649.48 326.81 628.63 310.11 605.65 293.36 583.49 276.62 564.87 259.94 551.78 243.39 545.05 227 544.23 210.83 547.72 194.9 553.08 179.23 557.56 163.84 558.64 161.66 541.44 160.04 524.24 159.11 507.05 158.93 489.85 159.53 472.65 160.85 455.45 162.79 438.26 165.21 421.06 167.92 403.86 170.71 386.66 173.37 369.47 175.69 352.27 177.5 335.07 178.66 317.87 179.07 300.68 178.71 283.48 193.39 268.6 207.8 251.88 221.91 235.06 235.69 219.8 249.14 207.43 262.27 198.65 275.07 193.43 287.58 191.03 299.81 190.17 311.81 189.34 323.63 187.03 335.32 182.12 346.94 174.01 358.56 162.8 370.25 149.16 382.09 134.25 382.09 134.25 382.09 134.25" stroke-dasharray="4 6" transform="rotate(20.200000000000003, 400, 400)" opacity="0.93"></path><path d="M385.35 146.98Q401.08 148.29 417.19 150.38 433.66 154.39 450.45 161.1 467.5 170.86 484.78 183.42 502.21 198.04 519.73 213.53 537.26 228.52 554.72 241.69 572.05 252 589.15 258.92 605.95 262.54 622.39 263.54 638.38 263.13 653.87 262.82 654.14 278.4 652.04 293.98 647.71 309.56 641.45 325.14 633.69 340.72 624.98 356.3 615.93 371.87 607.15 387.45 599.28 403.03 592.84 418.61 588.29 434.19 585.95 449.76 585.99 465.34 588.38 480.92 592.98 496.5 599.46 512.08 589.88 532.07 580.41 552.83 570.98 572.02 561.49 587.53 551.87 597.91 542.04 602.59 531.94 602.08 521.51 597.83 510.7 592 499.47 587.11 487.79 585.52 475.65 589.05 463.03 598.59 449.94 613.97 436.39 633.92 422.39 656.31 407.44 662.38 392.17 665.26 376.62 663.07 360.85 654.84 344.91 640.75 328.87 622 312.79 600.63 296.71 579.12 280.69 559.9 264.78 544.99 249.03 535.55 233.46 531.75 218.12 532.75 203.02 536.82 188.17 541.76 173.6 545.22 171.58 528.98 170.15 512.74 169.41 496.5 169.4 480.25 170.13 464.01 171.54 447.77 173.54 431.53 175.99 415.29 178.72 399.05 181.54 382.81 184.24 366.57 186.66 350.33 188.6 334.08 189.95 317.84 190.6 301.6 190.52 285.36 204.66 269.56 218.54 253.18 232.16 237.75 245.48 224.6 258.49 214.59 271.19 208 283.58 204.48 295.67 203.13 307.47 202.71 319.02 201.82 330.35 199.21 341.5 193.99 352.52 185.76 363.46 174.67 374.38 161.4 385.35 146.98 385.35 146.98 385.35 146.98" stroke-dasharray="4 1" transform="rotate(24.24, 400, 400)" opacity="0.24"></path><path d="M389.26 159.71Q404.63 160.76 420.3 162.48 436.23 165.89 452.39 171.74 468.71 180.4 485.16 191.77 501.67 205.29 518.18 220.04 534.63 234.84 550.95 248.48 567.08 259.89 582.95 268.36 598.5 273.66 613.68 276.05 628.42 276.32 642.67 275.63 642.09 290.61 639.43 305.59 634.85 320.57 628.65 335.55 621.22 350.53 613.01 365.51 604.55 380.49 596.37 395.48 588.99 410.46 582.86 425.44 578.38 440.42 575.82 455.4 575.34 470.38 576.98 485.36 580.64 500.34 586.07 515.32 576.7 534.89 567.49 553.58 558.37 569.52 549.26 581.26 540.1 588.02 530.83 589.85 521.37 587.6 511.68 582.82 501.71 577.52 491.41 573.81 480.75 573.6 469.7 578.24 458.26 588.28 446.4 603.42 434.12 622.46 421.44 643.58 406.72 649.21 391.76 652.11 376.61 650.61 361.32 643.8 345.95 631.66 330.54 615.02 315.14 595.45 299.8 574.96 284.57 555.69 269.47 539.51 254.55 527.8 239.83 521.14 225.34 519.3 211.08 521.27 197.08 525.41 183.33 529.8 181.51 514.54 180.29 499.28 179.75 484.02 179.9 468.76 180.76 453.51 182.26 438.25 184.3 422.99 186.77 407.73 189.5 392.47 192.33 377.22 195.07 361.96 197.55 346.7 199.62 331.44 201.15 316.18 202.04 300.92 202.23 285.66 215.82 269.9 229.18 254.67 242.31 241.21 255.16 230.43 267.74 222.79 280.02 218.2 292.01 216.11 303.71 215.54 315.12 215.32 326.26 214.25 337.16 211.29 347.85 205.76 358.36 197.43 368.73 186.5 384.14 166.66 389.26 159.71" stroke-dasharray="6 9" transform="rotate(28.28, 400, 400)" opacity="0.11"></path><path d="M393.66 172.44Q408.53 173.24 423.62 174.63 438.87 177.48 454.27 182.51 469.74 190.09 485.26 200.24 500.77 212.58 516.21 226.4 531.53 240.73 546.67 254.51 561.59 266.72 576.24 276.55 590.55 283.54 604.49 287.63 618.02 289.2 631.1 289.02 629.78 303.39 626.67 317.77 621.94 332.14 615.86 346.52 608.77 360.89 601.07 375.27 593.2 389.65 585.6 404.02 578.7 418.4 572.89 432.77 568.49 447.15 565.76 461.53 564.85 475.9 565.81 490.28 568.59 504.65 573.03 519.03 563.87 536.87 554.9 552.6 546.06 564.91 537.28 572.95 528.53 576.53 519.72 576.1 510.82 572.71 501.76 567.88 492.51 563.39 483.03 560.96 473.27 562.07 463.2 567.68 452.81 578.08 442.07 592.87 430.99 610.99 419.54 630.85 405.16 636.06 390.64 638.93 376 638.04 361.3 632.52 346.57 622.21 331.87 607.65 317.24 590.01 302.7 570.88 288.29 552.03 274.05 535.18 259.99 521.72 246.15 512.53 232.52 507.81 219.13 507.15 205.97 509.51 193.05 513.46 191.47 499.18 190.47 484.91 190.13 470.63 190.45 456.36 191.43 442.08 193 427.81 195.08 413.54 197.55 399.26 200.27 384.99 203.09 370.72 205.84 356.44 208.38 342.17 210.55 327.89 212.24 313.62 213.36 299.35 213.83 285.07 226.85 270.27 239.69 256.88 252.31 245.76 264.7 237.45 276.83 232.04 288.7 229.2 300.3 228.23 311.62 228.17 322.66 227.95 333.44 226.58 343.96 223.23 354.25 217.42 364.33 209.01 374.24 198.27 388.83 179.13 393.66 172.44" stroke-dasharray="4 3" transform="rotate(32.32, 400, 400)" opacity="0.35"></path><path d="M398.34 185.19Q412.58 185.76 426.95 186.83 441.41 189.17 455.93 193.42 470.47 199.96 484.97 208.89 499.41 219.98 513.73 232.7 527.89 246.31 541.85 259.89 555.56 272.54 568.99 283.43 582.09 291.97 594.84 297.84 607.2 301.11 619.16 302.18 617.23 315.92 613.78 329.66 608.97 343.4 603.07 357.14 596.35 370.88 589.16 384.62 581.86 398.36 574.82 412.1 568.39 425.84 562.9 439.58 558.63 453.32 555.78 467.06 554.51 480.81 554.87 494.55 556.85 508.29 560.35 522.03 551.4 537.12 542.66 549.37 534.08 557.99 525.61 562.68 517.2 563.64 508.8 561.58 500.38 557.62 491.87 553.17 483.24 549.69 474.46 548.58 465.48 550.91 456.27 557.34 446.82 567.96 437.09 582.33 427.07 599.5 416.76 618.11 402.86 622.91 388.89 625.73 374.87 625.35 360.85 620.98 346.87 612.37 332.96 599.84 319.14 584.2 305.46 566.67 291.92 548.7 278.57 531.76 265.4 517.17 252.45 505.92 239.7 498.55 227.18 495.07 214.88 494.99 202.8 497.38 201.46 484.06 200.7 470.75 200.56 457.44 201.05 444.13 202.14 430.82 203.77 417.51 205.87 404.19 208.33 390.88 211.02 377.57 213.81 364.26 216.56 350.95 219.13 337.64 221.39 324.33 223.23 311.02 224.55 297.71 225.28 284.4 237.74 271.35 250.03 260.28 262.14 251.7 274.05 245.78 285.74 242.36 297.19 240.93 308.39 240.75 319.33 240.93 330.02 240.55 340.46 238.79 350.64 235.04 360.58 228.95 370.3 220.52 379.82 210.01 393.74 191.59 398.34 185.19" stroke-dasharray="6 8" transform="rotate(36.36, 400, 400)" opacity="0.56"></path><path d="M403.09 197.92Q416.57 198.29 430.11 199.07 443.67 200.94 457.23 204.46 470.74 210.01 484.18 217.73 497.51 227.53 510.68 239.04 523.67 251.69 536.44 264.76 548.96 277.47 561.2 289.03 573.13 298.82 584.74 306.37 595.99 311.5 606.88 314.29 604.46 327.35 600.77 340.41 595.97 353.47 590.28 366.52 583.96 379.58 577.27 392.64 570.54 405.7 564.04 418.76 558.08 431.82 552.92 444.88 548.79 457.94 545.87 471 544.3 484.06 544.14 497.12 545.41 510.18 548.04 523.24 539.32 534.96 530.81 543.58 514.34 549.2 498.16 546.59 482.08 539.55 465.84 536.7 457.53 540.14 449.07 547.23 440.43 557.94 431.59 571.81 422.53 588 413.23 605.38 399.94 609.78 386.63 612.52 373.34 612.57 360.1 609.22 346.94 602.17 333.87 591.57 320.94 577.95 308.15 562.22 295.52 545.49 283.08 528.99 270.83 513.89 258.77 501.19 246.92 491.59 235.27 485.43 223.83 482.61 212.58 482.68 211.51 470.29 210.99 457.9 211.05 445.52 211.69 433.13 212.88 420.74 214.57 408.35 216.68 395.96 219.11 383.57 221.76 371.18 224.51 358.79 227.23 346.4 229.81 334.01 232.13 321.62 234.09 309.24 235.6 296.85 236.58 284.46 248.45 273.74 260.19 265.25 271.77 259.17 283.19 255.42 294.41 253.64 305.42 253.26 316.22 253.55 326.79 253.72 337.13 253.03 347.22 250.82 357.08 246.66 366.71 240.34 376.11 231.92 385.29 221.69 398.68 204.03 403.09 197.92" stroke-dasharray="8 0" transform="rotate(40.400000000000006, 400, 400)" opacity="0.83"></path><path d="M407.7 210.65Q420.31 210.84 432.92 211.37 445.5 212.81 458.03 215.66 470.47 220.27 482.8 226.83 494.99 235.32 507.01 245.53 518.83 257.03 530.43 269.3 541.79 281.67 552.88 293.49 563.69 304.12 574.2 313.05 584.4 319.94 594.28 324.64 591.49 336.97 587.66 349.29 582.94 361.61 577.51 373.93 571.6 386.26 565.42 398.58 559.23 410.9 553.26 423.23 547.76 435.55 542.93 447.87 538.96 460.2 536.02 472.52 534.22 484.84 533.63 497.17 534.26 509.49 536.11 521.82 527.63 529.96 519.37 535.15 503.44 536.13 487.87 531.42 472.59 525.87 457.29 525.33 449.57 529.73 441.75 537.32 433.81 547.99 425.74 561.29 417.52 576.48 409.11 592.65 396.54 596.66 384.01 599.29 371.54 599.69 359.15 597.23 346.87 591.6 334.72 582.8 322.7 571.18 310.84 557.36 299.15 542.17 287.64 526.58 276.31 511.58 265.16 498.09 254.21 486.87 243.44 478.4 232.85 472.92 222.43 470.33 221.63 458.81 221.35 447.29 221.61 435.77 222.4 424.25 223.67 412.73 225.4 401.21 227.49 389.69 229.89 378.18 232.48 366.66 235.17 355.14 237.85 343.62 240.42 332.1 242.78 320.58 244.83 309.07 246.5 297.55 247.71 286.03 258.98 277.94 270.14 272.02 281.18 268.23 292.08 266.29 302.81 265.76 313.38 266.05 323.75 266.5 333.93 266.46 343.9 265.33 353.65 262.64 363.19 258.1 372.51 251.6 381.62 243.24 390.51 233.32 403.45 216.46 407.7 210.65" stroke-dasharray="10 6" transform="rotate(44.44, 400, 400)" opacity="0.25"></path><path d="M411.97 223.38Q423.62 223.42 435.23 223.72 446.77 224.77 458.22 227.01 469.55 230.75 480.76 236.2 491.81 243.41 502.68 252.25 513.36 262.48 523.82 273.68 534.06 285.36 544.05 296.99 553.79 308 563.27 317.88 572.48 326.22 581.4 332.73 578.36 344.26 574.47 355.79 569.89 367.32 564.77 378.85 559.27 390.38 553.6 401.91 547.94 413.44 542.48 424.97 537.42 436.5 532.93 448.04 529.16 459.57 526.23 471.1 524.26 482.63 523.31 494.16 519.88 513.84 508.36 524.26 492.97 521.96 477.98 516.36 463.42 512.73 448.96 514.48 441.73 519.67 434.46 527.61 427.13 538.11 419.72 550.76 412.21 564.95 404.59 579.92 392.85 583.55 381.18 586.06 369.6 586.73 358.14 585.03 346.79 580.65 335.59 573.53 324.52 563.83 313.62 551.96 302.88 538.52 292.3 524.23 281.9 509.89 271.67 496.27 261.6 484.1 251.7 473.94 241.96 466.17 232.38 460.96 231.85 450.26 231.8 439.56 232.25 428.85 233.16 418.15 234.51 407.45 236.25 396.74 238.33 386.04 240.67 375.33 243.19 364.63 245.8 353.93 248.42 343.22 250.96 332.52 253.33 321.82 255.45 311.12 257.24 300.41 258.65 289.71 269.3 284.25 279.87 280.69 290.34 278.81 300.69 278.24 310.92 278.52 321 279.11 330.93 279.45 340.69 279.02 350.27 277.39 359.67 274.21 368.88 269.32 377.89 262.7 386.7 254.46 395.32 244.89 407.86 228.88 411.97 223.38" stroke-dasharray="7 0" transform="rotate(48.48, 400, 400)" opacity="0.97"></path><path d="M415.7 236.11Q426.33 236.01 436.88 236.11 447.34 236.83 457.69 238.51 467.92 241.46 478 245.87 487.93 251.83 497.68 259.31 507.25 268.16 516.62 278.1 525.79 288.79 534.74 299.81 543.47 310.7 551.97 321 560.24 330.31 568.28 338.28 565.08 348.97 561.23 359.66 556.85 370.35 552.05 381.04 546.99 391.73 541.81 402.42 536.66 413.11 531.7 423.8 527.08 434.48 522.92 445.17 519.36 455.86 516.5 466.55 514.41 477.24 513.17 487.93 509.14 504.93 497.78 511.27 482.97 507.11 468.57 501.72 454.67 500.24 440.96 504.15 434.16 509.96 427.37 518.08 420.56 528.29 413.71 540.24 406.82 553.4 399.86 567.18 389.03 570.46 378.3 572.82 367.68 573.7 357.18 572.64 346.81 569.36 336.58 563.75 326.49 555.85 316.55 545.92 306.77 534.35 297.13 521.66 287.65 508.43 278.32 495.31 269.14 482.9 260.1 471.76 251.2 462.32 242.43 454.9 242.17 444.96 242.35 435.02 242.96 425.08 243.98 415.14 245.39 405.2 247.14 395.26 249.17 385.32 251.44 375.38 253.88 365.44 256.4 355.5 258.94 345.56 261.43 335.62 263.78 325.68 265.93 315.74 273.61 299.29 289.35 291.15 299.23 290.69 309.01 291.01 318.7 291.68 328.27 292.24 337.72 292.24 347.03 291.31 356.2 289.13 365.21 285.5 374.06 280.33 382.74 273.64 391.24 265.58 399.57 256.42 411.72 241.29 415.7 236.11" stroke-dasharray="2 5" transform="rotate(52.52, 400, 400)" opacity="0.20"></path><path d="M418.74 248.84Q428.3 248.63 437.78 248.56 447.15 248.98 456.4 250.18 465.52 252.42 474.5 255.87 483.34 260.66 492.01 266.81 500.52 274.23 508.85 282.79 517 292.24 524.97 302.28 532.75 312.58 540.33 322.76 547.73 332.47 554.93 341.35 551.69 351.16 547.95 360.97 543.8 370.78 539.37 380.59 534.74 390.41 530.05 400.22 525.4 410.03 520.92 419.84 516.72 429.65 512.91 439.46 509.57 449.27 506.8 459.08 504.66 468.89 503.21 478.7 489.58 493.94 473.37 492 459.72 488.27 446.38 487.63 433.42 495.29 420.61 508.7 414.25 518.52 407.89 529.7 401.53 541.84 395.13 554.45 385.29 557.38 375.54 559.58 365.92 560.6 356.42 560.07 347.04 557.73 337.8 553.45 328.69 547.22 319.71 539.15 310.87 529.48 302.17 518.57 293.6 506.82 285.17 494.72 276.86 482.74 268.67 471.36 260.6 461.01 252.63 452.04 252.62 442.82 253 433.61 253.76 424.39 254.87 415.17 256.31 405.96 258.05 396.74 260.04 387.52 262.22 378.31 264.55 369.09 266.97 359.87 269.41 350.65 271.82 341.44 274.13 332.22 276.29 323 283.75 308.58 298.58 303.15 307.83 303.59 317.02 304.32 326.14 304.99 335.16 305.24 344.09 304.75 352.92 303.24 361.62 300.52 370.21 296.48 378.66 291.09 386.97 284.42 395.14 276.61 403.16 267.89 414.88 253.69 418.74 248.84" stroke-dasharray="6 11" transform="rotate(56.56, 400, 400)" opacity="0.56"></path><path d="M420.94 261.59Q437.83 261.07 454.29 262.02 470.26 266.23 485.69 274.81 500.54 287.94 514.79 304.77 528.41 323.62 541.41 342.27 534.64 360.09 526.72 377.91 518.32 395.73 510.14 413.55 502.88 431.37 497.14 449.19 493.41 467.01 492 484.83 477.89 481.39 464.34 477.03 451.29 474.66 438.66 476.77 426.37 484.95 414.32 499.46 402.44 519.15 390.62 541.71 373.07 546.33 355.97 547.32 339.33 542.66 323.17 531.57 307.48 514.72 292.24 494 277.43 472.11 262.99 451.92 263.77 434.88 265.83 417.84 269 400.8 273 383.77 277.51 366.73 282.14 349.69 286.51 332.65 290.24 315.61 307.55 316.3 324.71 317.81 341.66 317.91 358.32 314.72 374.64 307.14 390.54 295.05 405.99 279.32 420.94 261.59 420.94 261.59 420.94 261.59" stroke-dasharray="9 9" transform="rotate(60.599999999999994, 400, 400)" opacity="0.28"></path><path d="M422.2 274.32Q436.97 273.62 451.35 274.01 465.29 276.93 478.76 283.37 491.75 293.72 504.24 307.63 516.24 324.11 527.75 341.63 521.33 357.64 514.12 373.66 506.63 389.67 499.37 405.68 492.84 421.69 487.52 437.7 483.75 453.71 481.82 469.72 468.57 465.93 455.81 462.9 443.48 462.65 431.55 466.78 419.95 476.05 408.63 490.35 397.51 508.6 386.54 528.98 371.04 533.09 355.95 534.44 341.27 531.4 326.99 523.17 313.1 509.92 299.59 492.71 286.41 473.29 273.54 453.78 274.67 438.12 276.86 422.45 279.97 406.79 283.78 391.13 288.02 375.46 292.39 359.79 296.6 344.13 300.35 328.46 316.25 330.04 332.07 331.1 347.75 330.04 363.23 325.66 378.47 317.43 393.4 305.5 407.99 290.69 422.2 274.32 422.2 274.32 422.2 274.32" stroke-dasharray="10 4" transform="rotate(64.64, 400, 400)" opacity="0.75"></path><path d="M422.47 287.05Q435.21 286.21 447.6 286.16 459.62 288 471.26 292.56 482.52 300.31 493.38 311.23 503.87 324.84 513.99 340.23 508.04 354.46 501.58 368.68 494.97 382.91 488.59 397.14 482.8 411.37 477.92 425.59 474.23 439.82 471.94 454.05 459.65 451.13 447.75 449.97 436.24 451.85 425.06 457.63 414.2 467.57 403.6 481.34 393.23 498.02 383.05 516.25 369.58 519.86 356.46 521.42 343.68 519.68 331.22 513.91 319.08 503.99 307.23 490.4 295.64 474.15 284.28 456.63 285.69 442.35 287.97 428.07 290.98 413.8 294.56 399.52 298.5 385.24 302.58 370.96 306.57 356.68 310.24 342.4 324.69 343.81 339.11 343.83 353.44 341.45 367.65 336.02 381.7 327.37 395.54 315.79 409.14 302.01 422.47 287.05 422.47 287.05 422.47 287.05" stroke-dasharray="2 4" transform="rotate(68.68, 400, 400)" opacity="0.12"></path><path d="M421.74 299.78Q432.55 298.86 443.08 298.47 453.32 299.42 463.27 302.39 472.92 307.82 482.27 315.88 491.35 326.41 500.17 338.97 494.78 351.46 489.08 363.95 483.34 376.44 477.81 388.93 472.73 401.43 468.33 413.92 464.81 426.41 462.33 438.9 451.09 437.64 440.16 438.56 429.55 442.32 419.22 449.3 409.15 459.46 399.33 472.42 389.73 487.43 380.32 503.52 368.82 506.65 357.59 508.3 346.63 507.57 335.92 503.83 325.45 496.84 315.19 486.72 305.13 473.97 295.24 459.38 296.86 446.53 299.15 433.68 302.02 420.82 305.34 407.97 308.95 395.11 312.7 382.26 316.41 369.41 319.93 356.56 332.88 357 345.83 355.66 358.74 352 371.59 345.73 384.35 336.93 396.97 325.91 409.45 313.27 421.74 299.78 421.74 299.78 421.74 299.78" stroke-dasharray="9 7" transform="rotate(72.72, 400, 400)" opacity="0.84"></path><path d="M420.03 312.51Q437.76 311.38 454.84 312.89 463.01 316.36 470.97 321.82 478.74 329.34 486.32 338.77 481.56 349.58 476.65 360.4 471.75 371.21 467.03 382.02 462.65 392.84 458.76 403.65 455.5 414.47 452.97 425.28 442.87 426.02 433.01 428.86 423.39 434.07 414 441.72 404.82 451.67 395.85 463.55 387.07 476.81 378.46 490.78 368.83 493.45 359.4 495.08 350.17 495.07 341.12 492.94 332.23 488.41 323.5 481.43 314.9 472.16 306.42 460.98 308.17 449.6 310.42 438.23 313.1 426.86 316.12 415.49 319.37 404.11 322.75 392.74 326.13 381.37 329.41 370 340.82 369.05 352.25 366.31 363.68 361.57 375.08 354.79 386.44 346.12 397.73 335.87 414.48 318.5 420.03 312.51" stroke-dasharray="5 10" transform="rotate(76.76, 400, 400)" opacity="0.67"></path><path d="M417.43 325.24Q431.98 323.82 446.08 324.04 459.47 330 472.48 340.41 468.41 349.62 464.28 358.82 460.19 368.02 456.25 377.22 452.55 386.42 449.2 395.62 440.61 410.72 426.26 420.94 417.74 427.04 409.39 434.84 401.2 444.16 393.18 454.73 385.3 466.17 377.57 478.05 362.01 481.26 346.83 481.31 339.45 478.73 332.16 474.38 324.97 468.27 317.85 460.51 319.63 450.68 321.76 440.85 324.21 431.02 326.89 421.2 329.76 411.37 332.74 401.54 335.74 391.71 338.7 381.88 348.54 379.47 358.4 375.55 368.28 370.1 378.16 363.18 388.03 354.96 397.87 345.67 412.56 330.45 417.43 325.24" stroke-dasharray="11 5" transform="rotate(80.80000000000001, 400, 400)" opacity="0.74"></path><path d="M414.06 337.99Q425.75 336.28 437.06 335.82 448.03 338.19 458.69 344.51 451.98 359.79 445.47 375.08 439.63 390.36 434.86 405.64 419.87 414.79 405.35 428.54 391.29 445.94 377.68 465.31 365.22 468.45 353.07 469.03 341.19 465.56 329.52 457.33 333.19 440.88 337.67 424.42 342.67 407.96 347.83 391.5 364.3 383.26 380.88 370.91 397.48 355.33 414.06 337.99 414.06 337.99 414.06 337.99" stroke-dasharray="8 10" transform="rotate(84.84, 400, 400)" opacity="0.46"></path><path d="M410.05 350.72Q427.8 348.91 444.99 351.36 439.75 363.6 434.69 375.85 430.05 388.09 426.04 400.33 413.79 410.22 401.83 422.71 390.17 437.14 378.79 452.58 369.23 455.08 359.84 456.19 347.64 446.51 348.45 424.78 352.54 411.61 356.79 398.43 370 389.43 383.3 378.02 396.66 364.84 410.05 350.72 410.05 350.72 410.05 350.72" stroke-dasharray="8 2" transform="rotate(88.88, 400, 400)" opacity="0.41"></path><path d="M405.6 363.45Q423.11 365.76 423.92 379.44 420.47 388.67 417.34 397.91 407.98 406.98 398.78 417.24 389.73 428.34 380.84 439.85 361.72 437.24 359.23 422.24 362.37 412.4 365.62 402.56 375.52 394.13 385.49 384.57 400.56 368.83 405.6 363.45" stroke-dasharray="9 4" transform="rotate(92.92, 400, 400)" opacity="0.85"></path><path d="M400.9 376.18Q411.31 379.86 408.72 397.87 396.1 412 383.75 427.12 372.43 423.2 374.34 404.08 387.54 390.62 400.9 376.18 400.9 376.18 400.9 376.18" stroke-dasharray="3 10" transform="rotate(96.96, 400, 400)" opacity="0.16"></path></g></svg>